HIERARCHY
ROOT Hips
{
  OFFSET -32.5998 29.0326 120.673
  CHANNELS 6 Xposition Yposition Zposition Zrotation Xrotation Yrotation
  JOINT LeftUpLeg
  {
    OFFSET 8.64259 1.95398 -2.38835
    CHANNELS 3 Zrotation Xrotation Yrotation
    JOINT LeftLeg
    {
      OFFSET 43.7702 0 0
      CHANNELS 3 Zrotation Xrotation Yrotation
      JOINT LeftFoot
      {
        OFFSET 40.6238 0 0
        CHANNELS 3 Zrotation Xrotation Yrotation
        JOINT LeftToeBase
        {
          OFFSET 12.7242 0 0
          CHANNELS 3 Zrotation Xrotation Yrotation
          End Site
          {
            OFFSET 0 0 0
          }
        }
      }
    }
  }
  JOINT RightUpLeg
  {
    OFFSET -8.2249 1.95398 -2.59336
    CHANNELS 3 Zrotation Xrotation Yrotation
    JOINT RightLeg
    {
      OFFSET 43.5653 0 0
      CHANNELS 3 Zrotation Xrotation Yrotation
      JOINT RightFoot
      {
        OFFSET 40.6238 0 0
        CHANNELS 3 Zrotation Xrotation Yrotation
        JOINT RightToeBase
        {
          OFFSET 12.7242 0 0
          CHANNELS 3 Zrotation Xrotation Yrotation
          End Site
          {
            OFFSET 0 0 0
          }
        }
      }
    }
  }
  JOINT Spine
  {
    OFFSET 0.165834 0.87714 6.61349
    CHANNELS 3 Zrotation Xrotation Yrotation
    JOINT Spine1
    {
      OFFSET 7.38963 1.71661e-005 0
      CHANNELS 3 Zrotation Xrotation Yrotation
      JOINT Spine2
      {
        OFFSET 11.9445 1.14441e-005 0
        CHANNELS 3 Zrotation Xrotation Yrotation
        JOINT Spine3
        {
          OFFSET 14.7254 4.19617e-005 0
          CHANNELS 3 Zrotation Xrotation Yrotation
          JOINT Spine4
          {
            OFFSET 10.9679 0 0
            CHANNELS 3 Zrotation Xrotation Yrotation
            JOINT RightShoulder
            {
              OFFSET 2.46616 -1.6653 3.69651
              CHANNELS 3 Zrotation Xrotation Yrotation
              JOINT RightArm
              {
                OFFSET 13.0012 0 0
                CHANNELS 3 Zrotation Xrotation Yrotation
                JOINT RightForeArm
                {
                  OFFSET 28.7848 1.62311e-005 0
                  CHANNELS 3 Zrotation Xrotation Yrotation
                  JOINT RightHand
                  {
                    OFFSET 26.5688 1.62095e-005 0
                    CHANNELS 3 Zrotation Xrotation Yrotation
                    End Site
                    {
                      OFFSET 0 0 0
                    }
                  }
                }
              }
            }
            JOINT LeftShoulder
            {
              OFFSET 2.38034 -1.29275 -3.7523
              CHANNELS 3 Zrotation Xrotation Yrotation
              JOINT LeftArm
              {
                OFFSET 16.3182 6.07031e-005 0
                CHANNELS 3 Zrotation Xrotation Yrotation
                JOINT LeftForeArm
                {
                  OFFSET 27.0901 0 0
                  CHANNELS 3 Zrotation Xrotation Yrotation
                  JOINT LeftHand
                  {
                    OFFSET 24.5451 1.51738e-005 0
                    CHANNELS 3 Zrotation Xrotation Yrotation
                    End Site
                    {
                      OFFSET 0 0 0
                    }
                  }
                }
              }
            }
            JOINT Neck
            {
              OFFSET 5.0226 -0.0266342 0
              CHANNELS 3 Zrotation Xrotation Yrotation
              JOINT Head
              {
                OFFSET 6.69364 2.86102e-005 0
                CHANNELS 3 Zrotation Xrotation Yrotation
                End Site
                {
                  OFFSET 0 0 0
                }
              }
            }
          }
        }
      }
    }
  }
}
MOTION
Frames:	12
Frame Time:	0.0416667
-47.3573 55.7412 38.0201 61.6945 43.5367 107.292 -34.9586 60.8627 -20.9464 -122.757 53.0098 3.32531 57.5389 -0.331237 10.8931 3.02231 8.35977 -29.5604 46.2905 54.7515 -169.308 -122.316 -18.4121 -4.07029 83.3597 -18.1407 -8.81223 14.5328 1.71637 12.6509 0.509774 12.8121 -90.0023 1.24916 1.01666 0.028477 -10.4214 1.01692 -0.0163134 -32.9595 0.961089 0.332733 -12.9468 0.961083 0.332727 91.7245 -14.5119 -110.103 15.6502 17.2958 -50.5212 -9.13759 8.05064 -24.5088 -4.73646 0.382979 -16.4644 -88.9468 -24.3238 73.3588 9.59817 -7.10065 -78.2674 8.16241 -4.15044 -6.10394 -10.9752 0.926819 -17.8323 15.4702 -2.23336 -3.14057 -9.34196 -1.27405 -0.760694 
-47.5416 55.7199 38.2978 61.2808 43.8277 106.972 -36.1625 60.5608 -20.6227 -122.52 52.5864 3.28497 58.251 0.322476 11.0282 2.80606 7.52261 -28.2954 47.1712 56.2548 -168.909 -121.568 -16.9263 -4.03186 86.4838 -19.8014 -7.00158 17.1524 0.994454 12.1539 0.461336 12.6608 -90.0118 1.5519 0.916415 0.00314462 -10.1187 0.915668 -0.0372054 -32.6563 0.873097 0.278444 -12.6437 0.873107 0.278445 91.4748 -14.8604 -110.543 12.8219 15.7748 -49.8547 -9.15779 8.32385 -22.7443 -4.30944 0.329258 -16.137 -89.4922 -25.5766 72.712 9.50296 -6.5788 -78.2216 7.99258 -4.37193 -5.19146 -10.9065 0.882707 -17.4012 18.1204 -2.105 -2.23186 -11.3067 -1.2737 -1.50291 
-47.8696 55.8285 38.5339 60.2606 43.8692 107.136 -38.2717 60.5696 -19.7227 -122.004 53.1284 3.17514 59.9242 1.97769 12.2774 6.9938 6.9103 -26.3245 48.8375 58.4454 -168.873 -119.786 -13.5388 -3.33806 92.4543 -22.34 -2.80806 18.3859 0.406547 12.6553 0.3947 12.3754 -89.9436 2.12228 0.81001 0.12706 -9.5484 0.81482 0.0912786 -32.0853 0.734364 0.364647 -12.0726 0.734367 0.36463 91.4427 -15.5001 -110.258 11.5194 12.7063 -50.6134 -9.23814 8.11845 -20.466 -3.72466 0.293909 -16.907 -89.7165 -24.9938 72.0309 9.91025 -4.5516 -77.0978 7.39219 -5.53342 -4.75623 -13.7472 1.39729 -19.2259 20.7057 -2.45204 -2.74704 -13.2079 -1.42974 -0.712029 
-48.2006 56.003 38.7742 59.6539 44.3303 107.262 -39.7944 60.0493 -18.8397 -121.427 54.7518 3.08115 59.909 2.37296 14.0259 6.97988 5.80263 -24.4696 48.4792 58.4958 -168.2 -118.962 -12.178 -3.24802 93.8181 -23.1482 -2.54467 17.6126 0.252063 13.8589 0.371226 12.13 -89.9421 2.61319 0.764109 0.12459 -9.05754 0.768839 0.0908235 -31.5942 0.691332 0.348489 -11.5816 0.691337 0.348488 90.9023 -16.8517 -110.84 8.48426 11.7731 -50.2294 -9.68773 5.20482 -18.1322 -5.91489 0.374176 -13.806 -90.1374 -25.1103 71.2196 9.5076 -3.15415 -76.9692 7.17603 -3.93868 -3.65112 -14.9553 1.57294 -19.3583 22.9708 -2.95723 -3.41513 -13.87 -1.76841 0.862577 
-48.3724 56.632 38.8262 58.9989 44.2859 108.397 -40.1963 60.4522 -18.2021 -119.642 53.8237 2.45275 60.266 2.46734 11.989 5.72235 6.66975 -26.081 49.2247 58.5957 -168.843 -117.823 -13.8639 -2.96992 92.6016 -23.2309 -4.33054 16.5589 0.569363 13.9327 0.448248 11.8523 -90.0514 3.16933 0.87515 -0.0944474 -8.50135 0.870146 -0.132883 -31.0388 0.863075 0.17296 -11.0261 0.863068 0.17295 90.1447 -17.8553 -112.112 4.39136 10.418 -48.4309 -10.5309 1.12978 -16.7908 -3.06102 0.156105 -13.6002 -90.7162 -25.7518 70.3098 7.99131 -2.07281 -76.3057 7.72639 -1.09576 -4.51963 -15.8464 1.64551 -18.9549 23.7337 -3.24987 -3.34589 -13.3783 -2.09764 1.46029 
-48.6228 58.0889 38.8838 57.2286 44.1485 109.613 -41.7548 60.6661 -16.9259 -116.363 54.6218 1.00792 60.0319 2.46261 12.2468 3.04734 6.88033 -27.2345 49.156 59.5276 -168.926 -115.247 -12.4887 -2.0475 92.6832 -21.5628 -0.99496 15.4012 1.92353 11.2779 0.425627 11.5748 -90.0781 3.72453 0.819034 -0.152635 -7.94618 0.81155 -0.188529 -30.4834 0.827048 0.100604 -10.4707 0.827037 0.100595 89.9841 -17.9929 -112.417 2.32624 9.11875 -47.2912 -10.2312 1.62103 -16.5943 -0.788159 -0.0255146 -14.9821 -90.9566 -26.4874 70.131 8.29597 -1.53354 -76.1301 7.99415 1.07852 -5.61112 -16.2343 1.70768 -19.0653 24.9407 -3.10917 -3.31682 -13.0272 -1.91485 1.29576 
-48.8317 60.4621 39.025 54.5716 43.5751 111.555 -43.5146 61.6706 -16.0988 -110.83 53.0851 -1.37328 59.2966 1.58876 10.5048 4.23915 8.13151 -28.9637 50.129 61.027 -168.982 -111.136 -13.5083 -0.436533 90.611 -20.7028 -2.51531 15.6998 1.62096 11.8124 0.412098 11.2657 -90.048 4.34263 0.803942 -0.100594 -7.32805 0.798732 -0.135894 -29.8652 0.797007 0.145685 -9.85255 0.796998 0.145685 90.1342 -18.1454 -111.972 3.53815 9.81857 -47.3056 -10.8411 0.346958 -17.823 -2.14994 0.0979457 -14.4631 -90.8916 -25.8951 70.0173 8.95808 -1.44822 -75.5904 7.96075 0.573418 -6.68042 -16.6618 1.84194 -19.6957 26.4101 -3.25909 -3.72307 -12.0695 -1.84787 1.30093 
-49.1738 63.7334 38.9798 50.7494 42.8501 113.77 -48.0321 63.337 -13.7395 -102.65 52.4854 -5.03559 59.8443 1.94927 9.35315 4.58956 6.09391 -25.4931 50.6967 63.3554 -169.079 -105.101 -14.222 1.64059 89.6022 -20.1906 -2.78864 15.4237 1.39875 12.6764 0.322335 10.8556 -90.0033 5.1627 0.642779 -0.0189976 -6.50807 0.641333 -0.0472841 -29.0445 0.618774 0.175063 -9.03182 0.618778 0.175067 89.9311 -18.8426 -112.061 1.79776 9.10256 -46.489 -10.6918 0.529465 -18.5601 -1.59114 0.0549334 -14.712 -90.6425 -26.7699 70.867 10.5808 -1.4739 -76.0952 7.77515 1.28881 -7.28817 -15.9866 1.61959 -18.6291 27.9103 -3.01517 -3.02556 -11.0703 -1.77634 0.736922 
-49.4185 67.7813 39.0324 46.3116 41.7532 116.267 -53.4165 65.7396 -10.8188 -91.5272 54.5524 -10.3309 59.826 2.27677 10.2845 7.70892 3.44636 -20.3281 52.7916 66.0707 -170.261 -97.0913 -16.3508 4.5097 86.9664 -19.201 -4.42281 16.0571 1.31907 12.297 0.232732 10.4422 -89.9678 5.98936 0.478522 0.050073 -5.6815 0.480254 0.0289461 -28.2173 0.44135 0.191576 -8.20464 0.441351 0.191577 89.8553 -18.6972 -112.321 -1.19041 7.37286 -45.1179 -9.99103 1.93329 -19.5508 -0.22447 -0.0689772 -15.6342 -90.3124 -26.815 71.5349 10.7023 -1.62482 -76.5267 7.33495 -1.21299 -7.44466 -15.5876 1.57592 -18.7046 31.1638 -2.71837 -2.21468 -10.4316 -1.74484 1.05512 
-49.6417 72.2518 38.927 41.6295 41.0428 118.935 -61.9786 68.4032 -6.00378 -80.0255 51.1677 -14.7189 60.5668 2.51346 8.90425 8.92756 4.38421 -21.4339 54.1161 69.5975 -171.011 -88.7116 -16.5143 7.67675 83.6999 -16.76 -4.7751 16.28 1.3567 11.9797 0.133768 9.99531 -89.954 6.88316 0.286888 0.0785835 -4.78776 0.290088 0.0658611 -27.3231 0.250015 0.161177 -7.31043 0.250017 0.161174 89.7565 -18.8729 -112.454 -3.39975 5.97159 -42.9336 -9.28053 3.7321 -21.7773 0.289756 -0.119176 -16.6752 -90.4132 -26.3695 71.1659 9.84102 -1.13901 -75.3749 7.79452 -2.07089 -9.67283 -17.7127 2.05319 -20.1228 34.3378 -2.84306 -1.56209 -10.0044 -2.06116 0.866521 
-49.5533 76.9249 38.7202 38.0535 40.0362 120.701 -74.3181 71.3622 3.10579 -67.551 48.5796 -18.962 60.4399 2.27618 8.59753 14.8541 4.73094 -19.7769 60.6724 73.3335 -176.254 -79.2124 -14.3652 10.4819 81.3524 -14.7232 -4.08988 15.6246 1.53199 12.128 0.116703 9.54099 -89.9165 7.79171 0.269424 0.150532 -3.87923 0.275792 0.138519 -26.4144 0.21172 0.224538 -6.40181 0.211736 0.224544 89.8206 -19.2646 -112.085 -2.46455 5.73393 -39.9166 -10.1201 2.73102 -26.9814 0.23821 -0.109822 -16.0502 -90.4282 -26.7675 71.2922 9.28967 -0.553598 -73.6488 7.6584 -5.36755 -14.0807 -16.7663 2.00778 -20.8733 36.5002 -3.11923 -1.56133 -9.73028 -2.33148 1.71164 
-49.324 81.409 38.3732 35.3094 39.1817 122.088 -91.3253 73.7456 16.8846 -56.2595 45.1696 -21.4639 60.2957 1.91779 8.29317 17.1254 4.22623 -17.7778 72.9579 76.9347 172.847 -69.7888 -12.9932 12.7412 78.174 -12.358 -4.1688 15.0178 2.01374 11.3977 0.108466 9.12101 -89.897 8.63166 0.262115 0.186838 -3.03927 0.270095 0.175124 -25.5744 0.193854 0.256982 -5.56179 0.193845 0.256975 89.7621 -19.8987 -111.874 -1.50192 5.13195 -36.9469 -6.86188 9.01597 -31.8844 -2.80271 0.149195 -14.862 -90.5885 -27.3942 71.2192 11.0694 1.78061 -70.9169 5.61981 -11.3279 -19.5278 -17.4324 2.10623 -20.8772 38.6511 -2.94934 -0.715887 -9.67094 -2.50957 1.24451 
